<?xml version="1.0" encoding="UTF-8" standalone="no"?>
<!-- Created with Inkscape (http://www.inkscape.org/) -->

<svg
   xmlns:dc="http://purl.org/dc/elements/1.1/"
   xmlns:cc="http://creativecommons.org/ns#"
   xmlns:rdf="http://www.w3.org/1999/02/22-rdf-syntax-ns#"
   xmlns:svg="http://www.w3.org/2000/svg"
   xmlns="http://www.w3.org/2000/svg"
   xmlns:sodipodi="http://sodipodi.sourceforge.net/DTD/sodipodi-0.dtd"
   xmlns:inkscape="http://www.inkscape.org/namespaces/inkscape"
   version="1.1"
   id="svg4573"
   xml:space="preserve"
   width="291.33331"
   height="291.33331"
   viewBox="0 0 291.33331 291.33331"
   sodipodi:docname="avatar-icon.svg"
   inkscape:version="0.92.1 r15371"><metadata
     id="metadata4579"><rdf:RDF><cc:Work
         rdf:about=""><dc:format>image/svg+xml</dc:format><dc:type
           rdf:resource="http://purl.org/dc/dcmitype/StillImage" /><dc:title></dc:title></cc:Work></rdf:RDF></metadata><defs
     id="defs4577" /><sodipodi:namedview
     pagecolor="#ffffff"
     bordercolor="#666666"
     borderopacity="1"
     objecttolerance="10"
     gridtolerance="10"
     guidetolerance="10"
     inkscape:pageopacity="0"
     inkscape:pageshadow="2"
     inkscape:window-width="1920"
     inkscape:window-height="1001"
     id="namedview4575"
     showgrid="false"
     inkscape:zoom="1.8202062"
     inkscape:cx="163.91395"
     inkscape:cy="132.07432"
     inkscape:window-x="-9"
     inkscape:window-y="-9"
     inkscape:window-maximized="1"
     inkscape:current-layer="g4583" /><g
     id="g4581"
     inkscape:groupmode="layer"
     inkscape:label="ink_ext_XXXXXX"
     transform="matrix(1.3333333,0,0,-1.3333333,0,291.33333)"><g
       id="g4583"
       transform="scale(0.1)"><path
         d="M 2185,1092.5 C 2185,489.129 1695.87,0 1092.5,0 489.133,0 0,489.129 0,1092.5 0,1695.87 489.133,2185 1092.5,2185 1695.87,2185 2185,1695.87 2185,1092.5"
         style="fill:#404040;fill-opacity:1;fill-rule:nonzero;stroke:none"
         id="path4585"
         inkscape:connector-curvature="0" /><path
         d="M 1092.5,1747.1 446.035,627.371 1278.27,867.77 c 7.31,2.109 15.12,1.371 21.89,-2.051 l 425.63,-215.52 z M 382.82,547.891 c -9.07,0 -17.84,4.121 -23.621,11.5 -7.551,9.64 -8.476,22.898 -2.351,33.5 L 1066.52,1822.1 c 5.36,9.28 15.26,15 25.98,15 10.72,0 20.63,-5.72 25.98,-15 L 1828.15,592.891 c 6.64,-11.493 4.94,-25.993 -4.19,-35.621 -9.13,-9.629 -23.49,-12.129 -35.34,-6.149 L 1283.58,806.859 391.152,549.07 c -2.754,-0.8 -5.554,-1.179 -8.332,-1.179"
         style="fill:#ffffff;fill-opacity:1;fill-rule:nonzero;stroke:none"
         id="path4587"
         inkscape:connector-curvature="0" /><path
         d="m 1119.61,1270.34 168.1,-362.469 126.99,252.289 z M 382.813,547.891 c -7.208,0 -14.434,2.578 -20.176,7.808 -12.254,11.153 -13.157,30.121 -2,42.379 l 671.743,738.342 30.18,472.6 c 1.05,16.53 15.25,29.01 31.85,28.02 16.54,-1.06 29.09,-15.31 28.03,-31.85 l -29.43,-460.87 374.03,-139.66 c 7.98,-2.98 14.33,-9.22 17.43,-17.16 3.12,-7.94 2.7,-16.83 -1.13,-24.43 L 1313.4,825.469 c -5.17,-10.278 -15.9,-16.688 -27.28,-16.508 -11.51,0.18 -21.89,6.937 -26.74,17.379 L 1053.44,1270.4 405.012,557.711 c -5.918,-6.52 -14.043,-9.82 -22.199,-9.82"
         style="fill:#ffffff;fill-opacity:1;fill-rule:nonzero;stroke:none"
         id="path4589"
         inkscape:connector-curvature="0" /><g
         id="g4591"
         transform="scale(10)" /></g><path
       style="opacity:0;fill:#ffffff;fill-opacity:0.875;stroke-width:0.38847619"
       d="m 134.56174,290.76667 c -0.74782,-0.0811 -3.19522,-0.34163 -5.43867,-0.57887 C 104.66377,287.60128 79.357071,277.60268 59.052057,262.50296 30.055778,240.94003 10.121674,209.52426 3.0581986,174.25769 0.93454798,163.65472 0.38148703,157.81768 0.37119844,145.89893 0.35950538,132.35316 1.3173854,123.86416 4.2360072,111.64793 16.744779,59.290991 57.958566,17.662564 110.28198,4.5350652 c 11.59741,-2.9096927 22.5919,-4.22060857 35.35133,-4.21507876 10.12622,0.004389 14.70493,0.36362282 23.7777,1.86554026 42.09149,6.9678793 78.66027,31.7784723 100.84519,68.4198183 10.64122,17.575382 17.21421,36.751215 19.94973,58.200635 0.97544,7.64852 0.9829,25.69092 0.0139,33.60319 -4.75001,38.78526 -23.78807,72.92985 -54.19696,97.20176 -20.54705,16.40034 -44.82631,26.64677 -72.13116,30.44107 -4.38791,0.60974 -25.54556,1.12529 -29.32995,0.71467 z m -23.33063,-89.50988 c 32.55289,-9.40113 59.44507,-17.09295 59.76039,-17.09295 0.31533,0 15.74999,7.69182 34.29926,17.09295 25.586,12.96748 34.05807,17.09295 35.10205,17.09295 0.97157,0 1.74906,-0.33323 2.64478,-1.13356 2.73123,-2.44035 6.32509,4.31003 -45.31108,-85.10816 -25.60198,-44.334843 -47.13486,-81.583166 -47.85085,-82.774047 -1.76589,-2.937121 -4.00093,-3.831355 -6.33831,-2.535946 -0.63286,0.35074 -16.21875,26.971554 -48.721859,83.217263 -52.947912,91.62487 -49.292646,84.78291 -46.586459,87.20089 0.854807,0.76377 1.684006,1.13356 2.541835,1.13356 0.70024,0 27.907346,-7.69183 60.460243,-17.09295 z"
       id="path4599"
       inkscape:connector-curvature="0"
       transform="matrix(0.75000002,0,0,-0.75000002,0,218.5)" /></g></svg>